# polySurface20 verts=459 tris=349
v -0.000000 1.605033 -0.094678
v -0.000000 1.598428 -0.080202
v 0.048841 1.592684 -0.068414
v 0.054942 1.601664 -0.080781
v -0.000000 1.574806 -0.108582
v 0.066531 1.589624 -0.061507
v 0.070693 1.572826 -0.094968
v -0.000000 1.572764 -0.106779
v 0.070278 1.570522 -0.093694
v 0.115787 1.566944 -0.074297
v 0.074288 1.599093 -0.069432
v 0.118655 1.562507 -0.007284
v 0.115517 1.569783 -0.074839
v 0.123884 1.574808 -0.004664
v 0.173972 1.551128 -0.004298
v 0.174545 1.548686 -0.004635
v 0.126274 1.528861 0.047836
v 0.124460 1.517293 0.040114
v 0.160822 1.427488 0.167266
v 0.174783 1.513019 0.048519
v 0.175568 1.510697 0.047374
v 0.169932 1.431599 0.177997
v 0.154259 1.379151 0.155495
v 0.193900 1.414497 0.136453
v 0.193668 1.413478 0.134911
v 0.165077 1.382398 0.165781
v 0.203039 1.128045 0.193990
v 0.193534 1.374603 0.133333
v 0.192709 1.373789 0.131295
v 0.214602 1.128909 0.202620
v 0.231108 0.946483 0.175820
v 0.242420 1.131009 0.162452
v 0.241136 1.130827 0.159934
v 0.242952 0.948194 0.184838
v 0.254768 0.839184 0.171794
v 0.269408 0.953334 0.140535
v 0.268246 0.953353 0.137716
v 0.265750 0.841702 0.182753
v 0.285430 0.723503 0.171870
v 0.300332 0.847624 0.134902
v 0.299536 0.847593 0.131561
v 0.295152 0.725858 0.185576
v 0.316330 0.614652 0.165545
v 0.335997 0.727948 0.140071
v 0.335559 0.727771 0.136241
v 0.324783 0.616890 0.182925
v 0.356201 0.519004 0.169080
v 0.372317 0.617825 0.140602
v 0.372332 0.617568 0.136184
v 0.363790 0.521256 0.188490
v 0.420709 0.339840 0.158192
v 0.427083 0.339857 0.181021
v 0.479921 0.361111 0.138674
v 0.417781 0.520267 0.146923
v 0.418158 0.519900 0.141966
v 0.480408 0.360935 0.133548
v -0.254399 0.380333 -0.352968
v -0.230735 0.523699 -0.398953
v -0.266354 0.389958 -0.461427
v -0.224145 0.512231 -0.296232
v -0.437368 0.381331 -0.334423
v -0.386917 0.526551 -0.279705
v -0.506792 0.367466 -0.223590
v -0.445227 0.515648 -0.183691
v -0.433138 0.375127 -0.108012
v -0.347288 0.626892 -0.239995
v -0.393726 0.521641 -0.074854
v -0.509229 0.368379 0.055101
v -0.397821 0.618618 -0.145584
v -0.195911 0.647451 -0.341111
v -0.202130 0.598985 -0.258360
v -0.184929 0.710325 -0.224400
v -0.312272 0.744488 -0.199459
v -0.041691 0.529025 -0.391662
v -0.266354 0.389958 -0.461427
v -0.064567 0.386499 -0.449889
v 0.186393 0.517681 -0.399740
v 0.214870 0.377584 -0.465469
v -0.024597 0.631189 -0.356853
v -0.170484 0.751869 -0.289234
v 0.234833 0.515705 -0.297875
v 0.260346 0.380035 -0.353502
v 0.162561 0.634120 -0.349500
v -0.169818 0.864366 -0.190827
v -0.010067 0.746356 -0.314613
v 0.375768 0.525855 -0.279918
v 0.423222 0.380017 -0.334824
v 0.442995 0.515644 -0.183686
v 0.505142 0.367432 -0.223599
v 0.343085 0.626852 -0.240205
v 0.216335 0.618838 -0.260679
v 0.311441 0.744398 -0.199669
v 0.392344 0.521564 -0.074958
v 0.431308 0.375126 -0.108006
v 0.396949 0.618561 -0.145709
v 0.149770 0.745448 -0.300621
v 0.448681 0.517877 0.070077
v 0.509229 0.368379 0.055101
v 0.480408 0.360935 0.133548
v 0.418158 0.519900 0.141966
v 0.397944 0.617642 0.083087
v 0.372332 0.617568 0.136184
v 0.366987 0.621369 -0.041960
v 0.354817 0.729651 0.096815
v 0.335559 0.727771 0.136241
v 0.355284 0.737695 -0.116968
v 0.341808 0.733001 -0.019535
v 0.317302 0.851134 0.101108
v 0.299536 0.847593 0.131561
v 0.312825 0.859978 -0.094452
v 0.314775 0.853928 -0.003587
v 0.288446 0.956360 0.113270
v 0.268246 0.953353 0.137716
v 0.295017 0.968646 0.019339
v 0.256504 1.131972 0.135891
v 0.241136 1.130827 0.159934
v 0.281182 0.978325 -0.068954
v 0.263619 1.138399 0.036445
v 0.209840 1.368894 0.109460
v 0.192709 1.373789 0.131295
v 0.211312 1.408420 0.121383
v 0.193668 1.413478 0.134911
v 0.175568 1.510697 0.047374
v 0.201562 1.497341 0.053604
v 0.216272 1.530407 0.000440
v 0.174545 1.548686 -0.004635
v 0.217745 1.523398 -0.065732
v 0.215586 1.315991 -0.009884
v 0.115787 1.566944 -0.074297
v 0.242919 1.144382 -0.053432
v 0.208128 1.318795 -0.119215
v 0.126854 1.476786 -0.155924
v 0.196683 1.467824 -0.145906
v 0.216058 1.148308 -0.133813
v 0.191982 1.364996 -0.165715
v 0.246778 0.985092 -0.137179
v 0.132515 1.373354 -0.180227
v 0.080824 1.477065 -0.159012
v 0.070278 1.570522 -0.093694
v -0.000000 1.572764 -0.106779
v 0.154011 1.146850 -0.169732
v 0.083602 1.374884 -0.187863
v -0.000000 1.479934 -0.161038
v -0.070244 1.570489 -0.093623
v 0.091484 1.144812 -0.186056
v 0.184087 0.984750 -0.191673
v -0.000000 1.373974 -0.191346
v -0.080766 1.476999 -0.158937
v 0.122595 0.982917 -0.209375
v -0.000000 1.143176 -0.199780
v -0.125522 1.476140 -0.154467
v -0.115764 1.566925 -0.074230
v -0.083606 1.374874 -0.187862
v -0.132435 1.373324 -0.180130
v -0.180065 1.465585 -0.139499
v -0.197730 1.523502 -0.064735
v -0.174453 1.542510 -0.004139
v -0.212037 1.525574 -0.001586
v -0.183482 1.363963 -0.165172
v -0.154012 1.146850 -0.169731
v -0.091484 1.144812 -0.186056
v -0.000000 0.982557 -0.232580
v -0.121878 0.986343 -0.207477
v 0.000278 0.868696 -0.273896
v -0.164664 0.986084 -0.183030
v 0.141574 0.862327 -0.258318
v -0.146740 0.873014 -0.247589
v 0.193870 0.863672 -0.206551
v 0.277164 0.868091 -0.166204
v 0.205029 0.728924 -0.229638
v -0.247466 0.986157 -0.139534
v -0.276290 0.868251 -0.166270
v -0.216056 1.148308 -0.133813
v -0.280805 0.978242 -0.068632
v -0.242980 1.144391 -0.053456
v -0.195135 1.317766 -0.117933
v -0.312733 0.860097 -0.094449
v -0.263731 1.138659 0.036295
v -0.244510 1.324657 -0.029181
v -0.295009 0.968669 0.019325
v -0.256604 1.132699 0.135670
v -0.226172 1.379857 0.095173
v -0.354943 0.737973 -0.116664
v -0.314697 0.854056 -0.003597
v -0.288446 0.956364 0.113271
v -0.360377 0.621746 -0.042220
v -0.336909 0.732572 -0.018562
v -0.317282 0.851172 0.101103
v -0.397518 0.618144 0.083391
v -0.353449 0.731624 0.097303
v -0.448629 0.517928 0.070124
v -0.417487 0.520679 0.142493
v -0.480408 0.360935 0.133548
v -0.372276 0.617640 0.136215
v -0.335280 0.728203 0.136313
v -0.299363 0.847935 0.131499
v -0.268196 0.953557 0.137662
v -0.241136 1.130840 0.159927
v -0.195939 1.381107 0.124367
v -0.227212 1.422897 0.102727
v -0.196556 1.416551 0.132905
v -0.214006 1.474716 0.084560
v -0.184433 1.488762 0.083816
v -0.212037 1.525574 -0.001586
v -0.174453 1.542510 -0.004139
v -0.070244 1.570489 -0.093623
v -0.000000 1.574806 -0.108582
v -0.000000 1.572764 -0.106779
v -0.070650 1.572785 -0.094880
v -0.115764 1.566925 -0.074230
v -0.000000 1.605033 -0.094678
v -0.115493 1.569764 -0.074772
v -0.174453 1.542510 -0.004139
v -0.054642 1.601354 -0.080206
v -0.000000 1.598428 -0.080202
v -0.048841 1.592684 -0.068415
v -0.074067 1.598924 -0.069272
v -0.066232 1.589352 -0.061265
v -0.118649 1.556519 -0.007273
v -0.173891 1.544966 -0.003832
v -0.184433 1.488762 0.083816
v -0.123887 1.568824 -0.004650
v -0.137297 1.499826 0.074065
v -0.183843 1.491006 0.085244
v -0.196556 1.416551 0.132905
v -0.137579 1.508736 0.084088
v -0.155226 1.425118 0.151192
v -0.197232 1.417819 0.135170
v -0.195939 1.381107 0.124367
v -0.164046 1.429226 0.161952
v -0.196882 1.382174 0.126623
v -0.241136 1.130840 0.159927
v -0.165077 1.382397 0.165781
v -0.154380 1.379087 0.155488
v -0.203060 1.128151 0.193972
v -0.242420 1.131022 0.162442
v -0.268196 0.953557 0.137662
v -0.214609 1.128985 0.202589
v -0.231073 0.947755 0.175982
v -0.269366 0.953538 0.140497
v -0.299363 0.847935 0.131499
v -0.242930 0.949188 0.184941
v -0.300081 0.848121 0.134816
v -0.335280 0.728203 0.136313
v -0.265465 0.842304 0.182622
v -0.254768 0.839184 0.171794
v -0.335706 0.728400 0.140144
v -0.372276 0.617640 0.136215
v -0.294557 0.726868 0.185639
v -0.285430 0.723503 0.171870
v -0.372277 0.617879 0.140623
v -0.417487 0.520679 0.142493
v -0.323893 0.618179 0.183314
v -0.316330 0.614652 0.165545
v -0.356201 0.519004 0.169080
v -0.417032 0.521142 0.147505
v -0.480408 0.360935 0.133548
v -0.479921 0.361111 0.138674
v -0.363790 0.521256 0.188490
v -0.420709 0.339840 0.158192
v -0.425236 0.341472 0.178113
v -0.232940 1.212291 -0.135083
v -0.262692 1.225319 -0.085021
v -0.259332 1.237518 -0.083482
v -0.262300 1.219853 -0.082924
v -0.226057 1.224528 -0.132293
v -0.231684 1.204576 -0.135769
v -0.250509 1.227781 -0.075281
v -0.248990 1.224474 -0.181987
v -0.243910 1.239056 -0.181401
v -0.313707 1.294841 -0.220188
v -0.298837 1.310827 -0.216076
v -0.340470 1.375986 -0.203139
v -0.219192 1.213733 -0.136109
v -0.253654 1.214324 -0.184290
v -0.207127 1.267503 -0.126440
v -0.244369 1.283936 -0.062549
v -0.320671 1.287755 -0.226366
v -0.234758 1.225330 -0.190246
v -0.200336 1.295561 -0.121554
v -0.245724 1.302394 -0.047884
v -0.207423 1.282942 -0.183414
v -0.197967 1.312928 -0.120242
v -0.246295 1.318592 -0.036576
v -0.244510 1.324657 -0.029181
v -0.195135 1.317766 -0.117933
v -0.197348 1.318527 -0.169166
v -0.191768 1.350175 -0.170176
v -0.183482 1.363963 -0.165172
v -0.180065 1.465585 -0.139499
v -0.215088 1.433587 -0.153394
v -0.197730 1.523502 -0.064735
v -0.250148 1.367943 -0.191887
v -0.271636 1.490400 -0.096512
v -0.212037 1.525574 -0.001586
v -0.236286 1.400413 -0.172471
v -0.302680 1.305887 -0.228083
v -0.304825 1.421000 -0.175883
v -0.352241 1.378900 -0.211724
v -0.283920 1.501864 -0.034631
v -0.214006 1.474716 0.084560
v -0.287813 1.452003 -0.139784
v -0.260428 1.465318 0.063228
v -0.227212 1.422897 0.102727
v -0.314676 1.464971 -0.077905
v -0.327407 1.427809 -0.114985
v -0.253938 1.409568 0.084921
v -0.226172 1.379857 0.095173
v -0.361150 1.388825 -0.153404
v -0.365707 1.374383 -0.158564
v -0.312526 1.430624 0.016264
v -0.340664 1.404510 -0.026100
v -0.243473 1.367964 0.071673
v -0.244510 1.324657 -0.029181
v -0.246295 1.318592 -0.036576
v -0.367923 1.374797 -0.064771
v -0.277774 1.382657 0.051753
v -0.259336 1.342775 0.040485
v -0.245724 1.302394 -0.047884
v -0.306375 1.350545 0.007567
v -0.276161 1.316965 0.007240
v -0.244369 1.283936 -0.062549
v -0.317056 1.310688 -0.022773
v -0.281623 1.268671 -0.022019
v -0.250509 1.227781 -0.075281
v -0.262300 1.219853 -0.082924
v -0.287241 1.260904 -0.033653
v -0.262692 1.225319 -0.085021
v -0.368826 1.362690 -0.074659
v -0.319995 1.302491 -0.037100
v -0.285726 1.265065 -0.036719
v -0.259332 1.237518 -0.083482
v -0.285088 1.275628 -0.033449
v -0.318093 1.305687 -0.040316
v -0.317237 1.315078 -0.034258
v -0.359370 1.369859 -0.068893
v -0.364109 1.362710 -0.075190
v -0.349542 1.384171 -0.145543
v -0.358704 1.374837 -0.154634
v -0.353322 1.365921 -0.209525
v -0.360138 1.364556 -0.213061
v 0.307480 1.198825 -0.144299
v 0.299930 1.214694 -0.145883
v 0.254498 1.196636 -0.123705
v 0.353070 1.280276 -0.119565
v 0.265271 1.181825 -0.123544
v 0.247897 1.189338 -0.067355
v 0.254427 1.175128 -0.068354
v 0.254290 1.169577 -0.067719
v 0.268771 1.174190 -0.126779
v 0.262470 1.186337 -0.135607
v 0.239875 1.182214 -0.067050
v 0.232196 1.251981 -0.129364
v 0.214482 1.257985 -0.048554
v 0.299677 1.205732 -0.161136
v 0.314554 1.188347 -0.143687
v 0.367940 1.264401 -0.111947
v 0.216534 1.286715 -0.122248
v 0.207526 1.283374 -0.031978
v 0.242501 1.275779 -0.168028
v 0.378738 1.323356 -0.071617
v 0.369179 1.332043 -0.076875
v 0.364960 1.278978 -0.125411
v 0.377865 1.258992 -0.111347
v 0.206387 1.311000 -0.117880
v 0.204307 1.304417 -0.019608
v 0.215586 1.315991 -0.009884
v 0.208128 1.318795 -0.119215
v 0.213560 1.318781 -0.167508
v 0.208559 1.351166 -0.172152
v 0.191982 1.364996 -0.165715
v 0.287524 1.385190 -0.142698
v 0.257073 1.427571 -0.145239
v 0.196683 1.467824 -0.145906
v 0.306210 1.346425 -0.142251
v 0.384450 1.322963 -0.068875
v 0.299866 1.472824 -0.065174
v 0.217745 1.523398 -0.065732
v 0.216272 1.530407 0.000440
v 0.325862 1.421293 -0.079668
v 0.380332 1.336894 -0.074015
v 0.345673 1.381513 -0.087453
v 0.352643 1.336339 -0.028568
v 0.354836 1.321721 -0.029830
v 0.330356 1.386165 -0.023123
v 0.319443 1.436283 -0.012140
v 0.289509 1.489730 -0.002043
v 0.319519 1.327937 0.025620
v 0.258099 1.468457 0.052909
v 0.201562 1.497341 0.053604
v 0.211312 1.408420 0.121383
v 0.293323 1.416496 0.040804
v 0.306376 1.373654 0.032027
v 0.220350 1.391195 0.111401
v 0.209840 1.368894 0.109460
v 0.226893 1.352970 0.087893
v 0.215423 1.355182 0.094021
v 0.215586 1.315991 -0.009884
v 0.204307 1.304417 -0.019608
v 0.213691 1.319080 0.068513
v 0.207526 1.283374 -0.031978
v 0.233215 1.305799 0.058757
v 0.212235 1.271849 0.029673
v 0.214482 1.257985 -0.048554
v 0.239275 1.243387 0.032647
v 0.224055 1.207901 -0.005494
v 0.239875 1.182214 -0.067050
v 0.321909 1.314626 0.022277
v 0.246112 1.231698 0.021291
v 0.233849 1.196362 -0.013220
v 0.254290 1.169577 -0.067719
v 0.254427 1.175128 -0.068354
v 0.233391 1.202482 -0.015436
v 0.247897 1.189338 -0.067355
v 0.229401 1.216229 -0.011023
v 0.247529 1.238751 0.020248
v 0.244723 1.252144 0.025862
v 0.320936 1.316723 0.019719
v 0.318032 1.326150 0.019975
v 0.345275 1.333466 -0.031156
v 0.351127 1.322711 -0.031973
v -0.243910 1.239056 -0.181401
v -0.226057 1.224528 -0.132293
v -0.223546 1.273108 -0.133383
v -0.259332 1.237518 -0.083482
v -0.226085 1.291118 -0.171887
v -0.298837 1.310827 -0.216076
v -0.271157 1.413153 -0.069398
v -0.251039 1.286156 -0.067312
v -0.285088 1.275628 -0.033449
v -0.250566 1.366606 -0.184183
v -0.340470 1.375986 -0.203139
v -0.285621 1.317490 -0.011001
v -0.317237 1.315078 -0.034258
v -0.297524 1.413148 -0.169024
v -0.349542 1.384171 -0.145543
v -0.319512 1.418458 -0.112393
v -0.359370 1.369859 -0.068893
v -0.333647 1.396198 -0.034976
v -0.307910 1.351534 -0.006431
v 0.353070 1.280276 -0.119565
v 0.369179 1.332043 -0.076875
v 0.336312 1.373318 -0.085462
v 0.345275 1.333466 -0.031156
v 0.302086 1.343374 -0.134183
v 0.263555 1.389964 -0.000806
v 0.322577 1.378885 -0.025060
v 0.299930 1.214694 -0.145883
v 0.318032 1.326150 0.019975
v 0.269131 1.274180 -0.146504
v 0.242752 1.253039 -0.119262
v 0.254498 1.196636 -0.123705
v 0.247897 1.189338 -0.067355
v 0.220524 1.258130 -0.048429
v 0.229401 1.216229 -0.011023
v 0.219848 1.276918 0.018038
v 0.244723 1.252144 0.025862
v 0.239430 1.309935 0.049568
v 0.303091 1.366646 0.024900
vt 0.000000 1.000000
vt 0.000000 1.000000
vt 0.315674 0.989403
vt 0.315674 0.995998
vt 0.334717 0.995998
vt 0.334717 0.989403
vt 0.315674 0.972794
vt 0.352295 0.995998
vt 0.334717 0.972794
vt 0.315674 0.969299
vt 0.334717 0.969299
vt 0.352295 0.969299
vt 0.352295 0.989403
vt 0.393799 0.995998
vt 0.352295 0.972794
vt 0.393799 0.989403
vt 0.393799 0.972794
vt 0.393799 0.969299
vt 0.412842 0.989403
vt 0.412842 0.995998
vt 0.467773 0.995998
vt 0.412842 0.972794
vt 0.412842 0.969299
vt 0.467773 0.989403
vt 0.479004 0.995998
vt 0.467773 0.972794
vt 0.467773 0.969299
vt 0.479004 0.989403
vt 0.567871 0.995998
vt 0.479004 0.972794
vt 0.479004 0.969299
vt 0.567871 0.989403
vt 0.659180 0.995998
vt 0.567871 0.972794
vt 0.567871 0.969299
vt 0.659180 0.989403
vt 0.709961 0.995998
vt 0.659180 0.972794
vt 0.659180 0.969299
vt 0.709961 0.989403
vt 0.756348 0.995998
vt 0.709961 0.972794
vt 0.709961 0.969299
vt 0.756348 0.989403
vt 0.799316 0.995998
vt 0.756348 0.972794
vt 0.756348 0.969299
vt 0.799316 0.989403
vt 0.849121 0.995998
vt 0.799316 0.972794
vt 0.799316 0.969299
vt 0.849121 0.989403
vt 0.924805 0.996201
vt 0.922852 0.989700
vt 0.921387 0.972397
vt 0.849121 0.972794
vt 0.849121 0.969299
vt 0.923828 0.969299
vt 0.164917 0.465332
vt 0.203369 0.428223
vt 0.201904 0.473633
vt 0.174927 0.416016
vt 0.122070 0.460938
vt 0.129761 0.411621
vt 0.087219 0.454102
vt 0.098999 0.405273
vt 0.058685 0.435547
vt 0.137451 0.370117
vt 0.072815 0.385742
vt 0.023697 0.423828
vt 0.107788 0.362305
vt 0.207153 0.377441
vt 0.180664 0.378906
vt 0.185913 0.342285
vt 0.145020 0.329102
vt 0.258057 0.422363
vt 0.202026 0.473633
vt 0.259277 0.469238
vt 0.319580 0.428223
vt 0.319824 0.476074
vt 0.260254 0.380371
vt 0.209351 0.337891
vt 0.349854 0.416504
vt 0.356689 0.466309
vt 0.316895 0.378906
vt 0.192871 0.288574
vt 0.262939 0.339844
vt 0.388916 0.413574
vt 0.397217 0.463867
vt 0.420166 0.408691
vt 0.430908 0.458496
vt 0.383057 0.371094
vt 0.344971 0.373535
vt 0.377197 0.329102
vt 0.445801 0.389648
vt 0.457764 0.440918
vt 0.412842 0.364258
vt 0.314697 0.338379
vt 0.475586 0.380859
vt 0.490723 0.429688
vt 0.505371 0.422363
vt 0.487549 0.370605
vt 0.464844 0.340820
vt 0.476074 0.333008
vt 0.437256 0.349121
vt 0.456055 0.301758
vt 0.466309 0.295898
vt 0.404785 0.322754
vt 0.429443 0.311523
vt 0.447510 0.255859
vt 0.457275 0.251465
vt 0.394775 0.277344
vt 0.420654 0.267090
vt 0.439697 0.205078
vt 0.448975 0.200195
vt 0.411377 0.214355
vt 0.414307 0.122070
vt 0.421143 0.117676
vt 0.384277 0.223145
vt 0.387695 0.133301
vt 0.379883 0.055664
vt 0.387939 0.053223
vt 0.373779 0.047363
vt 0.380859 0.042969
vt 0.357178 0.009277
vt 0.356934 0.016602
vt 0.353027 0.018066
vt 0.346191 0.009277
vt 0.346436 0.027832
vt 0.359131 0.081543
vt 0.320801 0.015137
vt 0.361572 0.140625
vt 0.340576 0.096191
vt 0.312256 0.049316
vt 0.334229 0.053711
vt 0.336914 0.145996
vt 0.330078 0.084473
vt 0.358154 0.229004
vt 0.309814 0.081543
vt 0.295898 0.047852
vt 0.301025 0.011719
vt 0.263916 0.006348
vt 0.315430 0.149902
vt 0.293213 0.080566
vt 0.263916 0.043945
vt 0.226562 0.011719
vt 0.294922 0.152344
vt 0.327881 0.233887
vt 0.263916 0.080566
vt 0.231445 0.047852
vt 0.305908 0.236816
vt 0.263672 0.154297
vt 0.215088 0.049316
vt 0.207153 0.014648
vt 0.234497 0.080566
vt 0.217896 0.081055
vt 0.192871 0.052734
vt 0.181152 0.025879
vt 0.181519 0.008301
vt 0.175171 0.017090
vt 0.198242 0.082031
vt 0.211670 0.151367
vt 0.232300 0.152832
vt 0.264160 0.239258
vt 0.219360 0.236816
vt 0.264893 0.293457
vt 0.201416 0.235352
vt 0.311523 0.292969
vt 0.212646 0.291504
vt 0.336182 0.287598
vt 0.368408 0.283203
vt 0.341553 0.335938
vt 0.167847 0.230957
vt 0.155396 0.284180
vt 0.190063 0.148438
vt 0.141479 0.224609
vt 0.165039 0.144043
vt 0.187012 0.095215
vt 0.129028 0.277832
vt 0.138184 0.138184
vt 0.170044 0.090820
vt 0.114319 0.215820
vt 0.110779 0.128418
vt 0.146240 0.062988
vt 0.117310 0.321777
vt 0.103271 0.267090
vt 0.086609 0.206055
vt 0.083618 0.345703
vt 0.092712 0.309082
vt 0.076782 0.254883
vt 0.054901 0.336426
vt 0.066284 0.298828
vt 0.041809 0.376465
vt 0.029694 0.366211
vt 0.009102 0.416504
vt 0.044006 0.328613
vt 0.056396 0.292969
vt 0.067200 0.250488
vt 0.077576 0.201172
vt 0.103516 0.125000
vt 0.137939 0.058105
vt 0.149658 0.054688
vt 0.140259 0.049805
vt 0.164551 0.022949
vt 0.159790 0.016113
vt 0.175171 0.017090
vt 0.181519 0.008301
vt 0.334717 0.969299
vt 0.315674 0.972794
vt 0.315674 0.969299
vt 0.334717 0.972794
vt 0.352295 0.969299
vt 0.315674 0.989403
vt 0.352295 0.972794
vt 0.393799 0.969299
vt 0.334717 0.989403
vt 0.315674 0.995998
vt 0.334717 0.995998
vt 0.352295 0.989403
vt 0.352295 0.995998
vt 0.393799 0.995998
vt 0.393799 0.972794
vt 0.429932 0.969299
vt 0.393799 0.989403
vt 0.429932 0.995998
vt 0.429932 0.972794
vt 0.467773 0.969299
vt 0.429932 0.989403
vt 0.467773 0.995998
vt 0.467773 0.972794
vt 0.479004 0.969299
vt 0.467773 0.989403
vt 0.479004 0.972794
vt 0.567871 0.969299
vt 0.479004 0.989403
vt 0.479004 0.995998
vt 0.567871 0.995998
vt 0.567871 0.972794
vt 0.659180 0.969299
vt 0.567871 0.989403
vt 0.659180 0.995998
vt 0.659180 0.972794
vt 0.709961 0.969299
vt 0.659180 0.989403
vt 0.709961 0.972794
vt 0.756348 0.969299
vt 0.709961 0.989403
vt 0.709961 0.995998
vt 0.756348 0.972794
vt 0.799316 0.969299
vt 0.756348 0.989403
vt 0.756348 0.995998
vt 0.799316 0.972794
vt 0.849121 0.969299
vt 0.799316 0.989403
vt 0.799316 0.995998
vt 0.849121 0.995998
vt 0.849121 0.972794
vt 0.923828 0.969299
vt 0.921387 0.972397
vt 0.849121 0.989403
vt 0.924805 0.996201
vt 0.922852 0.989700
vt 0.122986 0.021484
vt 0.122803 0.003906
vt 0.126831 0.004395
vt 0.121277 0.003418
vt 0.126343 0.021973
vt 0.121399 0.021484
vt 0.115723 0.004395
vt 0.124390 0.037109
vt 0.128052 0.038574
vt 0.118225 0.070801
vt 0.122620 0.073242
vt 0.109924 0.096680
vt 0.117126 0.022461
vt 0.122803 0.037109
vt 0.103027 0.025391
vt 0.098022 0.007812
vt 0.116577 0.070312
vt 0.118225 0.037598
vt 0.094971 0.027832
vt 0.091614 0.007324
vt 0.101318 0.040527
vt 0.089600 0.028809
vt 0.085999 0.007812
vt 0.083496 0.007812
vt 0.087402 0.028320
vt 0.090393 0.041504
vt 0.080017 0.041992
vt 0.073486 0.038086
vt 0.048615 0.051758
vt 0.065186 0.059570
vt 0.033813 0.070801
vt 0.089783 0.063965
vt 0.055786 0.079590
vt 0.031006 0.083496
vt 0.078186 0.062988
vt 0.111511 0.069336
vt 0.082275 0.084473
vt 0.099670 0.091309
vt 0.048798 0.089355
vt 0.031799 0.104980
vt 0.069519 0.082031
vt 0.039398 0.107910
vt 0.037903 0.125000
vt 0.062500 0.094238
vt 0.075928 0.098633
vt 0.042389 0.126465
vt 0.040192 0.130371
vt 0.093079 0.104980
vt 0.097778 0.106934
vt 0.052887 0.113770
vt 0.064270 0.120117
vt 0.042999 0.134766
vt 0.036499 0.157227
vt 0.037994 0.159180
vt 0.078674 0.128906
vt 0.047913 0.134277
vt 0.047699 0.142090
vt 0.041107 0.163086
vt 0.055298 0.144531
vt 0.053711 0.150879
vt 0.044189 0.167969
vt 0.066223 0.156250
vt 0.062805 0.163574
vt 0.056396 0.179688
vt 0.060913 0.182617
vt 0.065918 0.166504
vt 0.062500 0.182617
vt 0.082825 0.131348
vt 0.069885 0.159180
vt 0.067688 0.166992
vt 0.066223 0.182129
vt 0.071289 0.166504
vt 0.071777 0.159668
vt 0.075317 0.159180
vt 0.088013 0.133789
vt 0.084717 0.132324
vt 0.102295 0.110840
vt 0.099304 0.107910
vt 0.106079 0.094238
vt 0.104370 0.092773
vt 0.411865 0.036621
vt 0.408203 0.037598
vt 0.411377 0.021484
vt 0.409912 0.072754
vt 0.414795 0.021484
vt 0.412598 0.003906
vt 0.416748 0.003906
vt 0.418213 0.003418
vt 0.416260 0.021484
vt 0.420410 0.022949
vt 0.423584 0.005371
vt 0.434082 0.027344
vt 0.440918 0.010254
vt 0.417969 0.037598
vt 0.413330 0.037109
vt 0.414551 0.070801
vt 0.441895 0.030273
vt 0.447510 0.010742
vt 0.434326 0.041992
vt 0.424316 0.095215
vt 0.420166 0.097168
vt 0.421387 0.069824
vt 0.416260 0.070312
vt 0.447266 0.031738
vt 0.452881 0.011230
vt 0.455322 0.011719
vt 0.449463 0.031738
vt 0.445312 0.044434
vt 0.455566 0.045898
vt 0.462402 0.042480
vt 0.455078 0.067383
vt 0.468506 0.064941
vt 0.485596 0.058594
vt 0.443604 0.066895
vt 0.426025 0.094238
vt 0.475586 0.085938
vt 0.498535 0.079102
vt 0.500000 0.091797
vt 0.461914 0.086914
vt 0.430908 0.092773
vt 0.448730 0.087891
vt 0.436035 0.107422
vt 0.431152 0.108887
vt 0.453857 0.103027
vt 0.467529 0.099609
vt 0.481689 0.096191
vt 0.443115 0.119141
vt 0.486328 0.104980
vt 0.499512 0.102051
vt 0.489014 0.132812
vt 0.471680 0.108887
vt 0.459229 0.113770
vt 0.484375 0.133789
vt 0.486084 0.137695
vt 0.478027 0.141113
vt 0.482910 0.142090
vt 0.487061 0.165039
vt 0.485596 0.166504
vt 0.477539 0.148926
vt 0.481934 0.170410
vt 0.469727 0.150391
vt 0.470703 0.157227
vt 0.478516 0.175293
vt 0.457520 0.161133
vt 0.460205 0.168945
vt 0.465088 0.185547
vt 0.438965 0.120605
vt 0.453613 0.163574
vt 0.456787 0.171387
vt 0.460205 0.187500
vt 0.458740 0.187500
vt 0.455078 0.171875
vt 0.455078 0.186523
vt 0.451416 0.170898
vt 0.451904 0.164062
vt 0.448242 0.163086
vt 0.437012 0.121582
vt 0.433594 0.124023
vt 0.426270 0.112305
vt 0.429688 0.109863
vt 0.189453 0.058594
vt 0.186768 0.067383
vt 0.181641 0.062500
vt 0.180664 0.074219
vt 0.181519 0.056641
vt 0.179321 0.042480
vt 0.168335 0.058594
vt 0.175659 0.068359
vt 0.172119 0.076172
vt 0.174072 0.050781
vt 0.165039 0.042480
vt 0.168945 0.070312
vt 0.167358 0.075684
vt 0.167236 0.049805
vt 0.157715 0.047852
vt 0.163330 0.053711
vt 0.155273 0.063965
vt 0.162231 0.062012
vt 0.166504 0.068359
vt 0.347412 0.042969
vt 0.359863 0.042969
vt 0.357910 0.049316
vt 0.366211 0.047363
vt 0.351807 0.049805
vt 0.356689 0.056641
vt 0.361084 0.052734
vt 0.338379 0.057129
vt 0.368896 0.054199
vt 0.345459 0.055176
vt 0.345215 0.060547
vt 0.340820 0.064453
vt 0.345947 0.070801
vt 0.350342 0.065430
vt 0.353516 0.072266
vt 0.356201 0.066895
vt 0.357666 0.071777
vn -0.002663 0.729396 -0.684086
vn -0.000310 0.869074 0.494682
vn -0.079674 0.849279 0.521898
vn 0.229127 0.730584 -0.643232
vn -0.002567 0.413613 -0.910449
vn -0.471346 0.569272 0.673619
vn 0.305991 0.469478 -0.828227
vn -0.000599 0.525734 -0.850649
vn 0.150619 0.560727 -0.814186
vn 0.302121 0.723117 -0.621147
vn 0.328951 0.924375 -0.193188
vn -0.798833 0.353876 0.486455
vn 0.514732 0.828250 -0.221478
vn 0.298434 0.927480 0.225206
vn 0.432722 0.833921 0.342531
vn 0.419690 0.907441 0.020294
vn 0.128499 0.766405 0.629374
vn -0.919798 0.165967 0.355565
vn -0.871925 0.103128 0.478656
vn 0.521698 0.701595 0.485383
vn 0.394057 0.711855 0.581362
vn 0.434264 0.600102 0.671783
vn -0.651558 -0.019965 0.758337
vn 0.685796 0.512616 0.516632
vn 0.572389 0.454695 0.682366
vn 0.516720 0.146334 0.843556
vn -0.621845 -0.074172 0.779620
vn 0.806075 0.190610 0.560277
vn 0.843875 0.168116 0.509521
vn 0.598317 0.133658 0.790033
vn -0.600675 -0.169369 0.781348
vn 0.830439 0.161599 0.533157
vn 0.853103 0.161801 0.496020
vn 0.640819 0.062853 0.765115
vn -0.689142 -0.176107 0.702901
vn 0.850569 0.127860 0.510083
vn 0.842814 0.117943 0.525122
vn 0.591042 0.160197 0.790574
vn -0.781060 -0.220940 0.584064
vn 0.800363 0.218101 0.558435
vn 0.853756 0.233516 0.465372
vn 0.516654 0.157501 0.841583
vn -0.836111 -0.292889 0.463827
vn 0.744337 0.222077 0.629797
vn 0.871437 0.277303 0.404600
vn 0.407815 0.159515 0.899023
vn -0.877885 -0.332632 0.344491
vn 0.676315 0.275090 0.683318
vn 0.861686 0.346132 0.371067
vn 0.310459 0.129587 0.941712
vn -0.890460 -0.331957 0.311263
vn 0.303112 0.071256 0.950287
vn 0.624793 0.196531 0.755652
vn 0.624691 0.228633 0.746651
vn 0.869061 0.356324 0.343170
vn 0.881442 0.324620 0.343047
vn -0.567154 0.424639 -0.705704
vn -0.432391 0.445623 -0.783874
vn -0.382594 0.448631 -0.807683
vn -0.546556 0.433999 -0.716185
vn -0.457323 0.458854 -0.761780
vn -0.417837 0.466791 -0.779435
vn -0.924124 0.375760 -0.069270
vn -0.929543 0.368712 0.001393
vn -0.954079 0.296541 0.042398
vn -0.425300 0.443737 -0.788808
vn -0.943369 0.330951 -0.022954
vn -0.923381 0.362325 -0.126842
vn -0.932151 0.359477 -0.043244
vn -0.455854 0.430167 -0.779200
vn -0.552386 0.402217 -0.730131
vn -0.522621 0.324736 -0.788298
vn -0.464958 0.367879 -0.805282
vn -0.001046 0.387435 -0.921896
vn -0.382594 0.448631 -0.807683
vn 0.005664 0.397282 -0.917679
vn 0.298926 0.422544 -0.855628
vn 0.257924 0.433215 -0.863598
vn -0.008435 0.379753 -0.925049
vn -0.482734 0.383177 -0.787491
vn 0.472594 0.404223 -0.783108
vn 0.491948 0.410576 -0.767733
vn 0.335904 0.386210 -0.859075
vn -0.505561 0.251388 -0.825355
vn -0.020021 0.366611 -0.930159
vn 0.438094 0.449295 -0.778593
vn 0.466321 0.448248 -0.762639
vn 0.928135 0.369218 -0.047360
vn 0.915031 0.384590 -0.121690
vn 0.481632 0.423869 -0.767050
vn 0.494761 0.361375 -0.790329
vn 0.559096 0.359957 -0.746889
vn 0.947792 0.317374 -0.031037
vn 0.954163 0.297168 0.035550
vn 0.933456 0.347756 -0.087896
vn 0.355611 0.344121 -0.868977
vn 0.919108 0.379551 -0.105741
vn 0.922650 0.361808 -0.133460
vn 0.881442 0.324620 0.343047
vn 0.869061 0.356324 0.343170
vn 0.927319 0.373187 -0.028469
vn 0.861686 0.346132 0.371067
vn 0.949991 0.311719 -0.018666
vn 0.953980 0.295158 0.052948
vn 0.871437 0.277303 0.404600
vn 0.937224 0.321485 -0.135128
vn 0.961458 0.274951 -0.000348
vn 0.962105 0.245178 0.119334
vn 0.853756 0.233516 0.465372
vn 0.932125 0.306152 -0.193425
vn 0.968867 0.247483 -0.006987
vn 0.964857 0.174847 0.196164
vn 0.842814 0.117943 0.525122
vn 0.978160 0.206445 -0.024168
vn 0.963887 0.193934 0.182516
vn 0.853103 0.161801 0.496020
vn 0.939534 0.244609 -0.239674
vn 0.978201 0.204705 -0.034909
vn 0.955370 0.214157 0.203480
vn 0.843875 0.168116 0.509521
vn 0.483835 0.453386 0.748562
vn 0.572389 0.454695 0.682366
vn 0.394057 0.711855 0.581362
vn 0.394779 0.664036 0.634985
vn 0.441653 0.880791 0.170734
vn 0.419690 0.907441 0.020294
vn 0.410313 0.798950 -0.439685
vn 0.970347 0.235041 -0.056408
vn 0.302121 0.723117 -0.621147
vn 0.958684 0.185135 -0.215986
vn 0.959377 0.123453 -0.253684
vn 0.228657 0.505481 -0.831988
vn 0.307124 0.557752 -0.771095
vn 0.757733 0.108461 -0.643488
vn 0.387515 0.061566 -0.919805
vn 0.756214 0.244220 -0.607040
vn 0.254579 0.052325 -0.965635
vn 0.106524 0.426185 -0.898343
vn 0.150619 0.560727 -0.814186
vn -0.000599 0.525734 -0.850649
vn 0.363999 0.064061 -0.929194
vn 0.118523 0.083525 -0.989432
vn -0.000442 0.411584 -0.911372
vn -0.158413 0.557748 -0.814753
vn 0.167936 0.089161 -0.981757
vn 0.475517 0.217580 -0.852375
vn -0.000084 0.094451 -0.995529
vn -0.113725 0.425909 -0.897590
vn 0.231203 0.265380 -0.936012
vn -0.001014 0.096846 -0.995299
vn -0.284215 0.489978 -0.824101
vn -0.357578 0.684591 -0.635196
vn -0.120874 0.084304 -0.989082
vn -0.281524 0.062719 -0.957502
vn -0.264281 0.572902 -0.775847
vn -0.341251 0.827443 -0.445967
vn -0.478607 0.876184 0.056892
vn -0.401017 0.891663 0.210054
vn -0.428472 0.075385 -0.900405
vn -0.370364 0.045077 -0.927792
vn -0.182376 0.080825 -0.979901
vn -0.006739 0.280809 -0.959740
vn -0.288576 0.250493 -0.924109
vn -0.016352 0.354270 -0.935000
vn -0.459392 0.164218 -0.872922
vn 0.322532 0.328541 -0.887713
vn -0.423473 0.343053 -0.838442
vn 0.508137 0.258664 -0.821517
vn 0.642367 0.316210 -0.698123
vn 0.499469 0.293662 -0.815042
vn -0.695873 0.220631 -0.683434
vn -0.528851 0.308977 -0.790474
vn -0.754191 0.121767 -0.645266
vn -0.940988 0.241708 -0.236892
vn -0.944977 0.140886 -0.295246
vn -0.951942 0.078833 -0.295958
vn -0.936579 0.296967 -0.186094
vn -0.988534 0.145373 -0.040828
vn -0.994085 0.055186 -0.093541
vn -0.978555 0.204400 -0.025524
vn -0.956409 0.155388 0.247258
vn -0.941157 0.118927 0.316354
vn -0.942891 0.315711 -0.106220
vn -0.972206 0.233945 -0.009206
vn -0.965103 0.172848 0.196723
vn -0.946063 0.323752 -0.012195
vn -0.965065 0.261992 -0.002975
vn -0.965881 0.234337 0.110272
vn -0.921068 0.386229 -0.049600
vn -0.957160 0.288120 0.028841
vn -0.915920 0.387610 -0.104162
vn -0.869097 0.356538 0.342856
vn -0.881223 0.325055 0.343198
vn -0.862538 0.346526 0.368712
vn -0.873604 0.276952 0.400143
vn -0.854848 0.230354 0.464943
vn -0.842193 0.115687 0.526618
vn -0.816580 0.159937 0.554632
vn -0.786539 0.147889 0.599571
vn -0.559903 0.230321 0.795903
vn -0.669667 0.188069 0.718454
vn -0.438034 0.679314 0.588778
vn -0.451283 0.721751 0.524804
vn -0.401017 0.891663 0.210054
vn -0.478607 0.876184 0.056892
vn -0.158413 0.557748 -0.814753
vn -0.002567 0.413613 -0.910449
vn -0.000599 0.525734 -0.850649
vn -0.305509 0.476981 -0.824108
vn -0.357578 0.684591 -0.635196
vn -0.002663 0.729396 -0.684086
vn -0.521907 0.838752 -0.155268
vn -0.478607 0.876184 0.056892
vn -0.230783 0.733990 -0.638747
vn -0.000310 0.869074 0.494682
vn 0.080180 0.847710 0.524365
vn -0.333847 0.930344 -0.151681
vn 0.454120 0.557244 0.695165
vn 0.837587 0.277333 0.470675
vn -0.429999 0.838787 0.333972
vn -0.451283 0.721751 0.524804
vn -0.270456 0.920273 0.282757
vn 0.949349 0.094217 0.299765
vn -0.431974 0.711784 0.553862
vn -0.669667 0.188069 0.718454
vn -0.113915 0.784459 0.609628
vn 0.887103 0.079113 0.454741
vn -0.595570 0.426613 0.680660
vn -0.786539 0.147889 0.599571
vn -0.294707 0.496404 0.816536
vn -0.796549 0.201142 0.570133
vn -0.816580 0.159937 0.554632
vn -0.544074 0.191882 0.816802
vn 0.660549 -0.002383 0.750779
vn 0.623190 -0.074273 0.778535
vn -0.827771 0.164510 0.536406
vn -0.842193 0.115687 0.526618
vn -0.608332 0.138558 0.781494
vn 0.600300 -0.168821 0.781754
vn -0.851581 0.126538 0.508722
vn -0.854848 0.230354 0.464943
vn -0.644222 0.061445 0.762366
vn -0.800993 0.215577 0.558513
vn -0.873604 0.276952 0.400143
vn -0.593707 0.158330 0.788951
vn 0.693920 -0.176188 0.698164
vn -0.743764 0.220724 0.630949
vn -0.862538 0.346526 0.368712
vn -0.518844 0.157859 0.840167
vn 0.793282 -0.222991 0.566549
vn -0.675965 0.275125 0.683650
vn -0.869097 0.356538 0.342856
vn -0.407445 0.158351 0.899396
vn 0.844592 -0.297734 0.444994
vn 0.879122 -0.333904 0.340076
vn -0.615101 0.218492 0.757570
vn -0.881223 0.325055 0.343198
vn -0.612584 0.182217 0.769115
vn -0.315790 0.125384 0.940508
vn 0.892065 -0.331555 0.307068
vn -0.289529 0.055755 0.955544
vn -0.967819 0.247178 -0.047222
vn -0.831179 0.169503 -0.529537
vn -0.809123 0.236906 -0.537769
vn -0.075938 -0.920008 0.384471
vn -0.954582 0.241299 -0.174780
vn 0.201817 -0.976624 0.073993
vn 0.711740 -0.410141 0.570272
vn -0.648701 0.114783 0.752337
vn -0.671598 0.104706 0.733480
vn -0.386368 -0.088939 0.918047
vn -0.372592 -0.153531 0.915207
vn 0.030991 -0.588363 0.808003
vn 0.890403 -0.435649 0.131883
vn -0.053658 -0.704069 -0.708102
vn 0.933801 -0.286560 0.214242
vn 0.777232 -0.316854 0.543612
vn -0.258186 -0.406290 -0.876509
vn 0.581922 -0.235903 -0.778278
vn 0.928818 -0.261723 0.262294
vn 0.710856 -0.493260 0.501376
vn 0.658947 -0.043077 -0.750955
vn 0.924267 -0.309778 0.223089
vn 0.734916 -0.555763 0.388621
vn -0.994085 0.055186 -0.093541
vn -0.951942 0.078833 -0.295958
vn 0.794847 0.050553 -0.604700
vn 0.453517 0.079046 -0.887736
vn -0.428472 0.075385 -0.900405
vn -0.264281 0.572902 -0.775847
vn 0.009668 0.571096 -0.820827
vn -0.341251 0.827443 -0.445967
vn 0.358514 0.284014 -0.889271
vn -0.294584 0.816712 -0.496187
vn -0.401017 0.891663 0.210054
vn 0.231776 0.459634 -0.857331
vn 0.266866 0.104272 -0.958076
vn -0.090889 0.668390 -0.738237
vn -0.083037 0.543123 -0.835537
vn -0.593961 0.789953 0.152267
vn -0.438034 0.679314 0.588778
vn -0.241656 0.721172 -0.649240
vn -0.620847 0.579440 0.528014
vn -0.559903 0.230321 0.795903
vn -0.796740 0.604318 -0.002173
vn -0.748817 0.654967 -0.101446
vn -0.670484 0.022477 0.741583
vn -0.941157 0.118927 0.316354
vn -0.727400 0.673222 -0.132897
vn -0.993520 -0.058381 -0.097522
vn -0.851712 0.295101 0.433016
vn -0.906130 0.232401 0.353437
vn -0.278622 -0.661692 0.696085
vn -0.994085 0.055186 -0.093541
vn 0.734916 -0.555763 0.388621
vn -0.909068 0.307185 0.281484
vn -0.723648 -0.159353 0.671521
vn -0.046033 -0.694448 0.718069
vn 0.710856 -0.493260 0.501376
vn -0.720774 -0.246453 0.647878
vn -0.030046 -0.610441 0.791492
vn 0.777232 -0.316854 0.543612
vn -0.694868 -0.322119 0.642961
vn 0.413229 -0.488504 0.768508
vn 0.711740 -0.410141 0.570272
vn -0.075938 -0.920008 0.384471
vn -0.433943 -0.757777 0.487306
vn -0.831179 0.169503 -0.529537
vn -0.955445 -0.260131 0.139489
vn -0.800147 -0.516306 0.305275
vn -0.701826 0.089897 -0.706653
vn -0.809123 0.236906 -0.537769
vn -0.477038 0.402010 -0.781551
vn 0.406638 -0.014141 -0.913480
vn 0.687758 0.266801 -0.675134
vn 0.875092 -0.387473 -0.289964
vn 0.668220 -0.612512 -0.422269
vn 0.659109 -0.742548 0.119156
vn 0.483146 -0.873016 0.066430
vn -0.063155 -0.550808 0.832239
vn -0.580192 0.018556 -0.814269
vn -0.108928 -0.011004 0.993989
vn -0.056788 0.025538 0.998060
vn 0.810603 0.273196 0.517965
vn -0.465922 -0.185559 0.865150
vn 0.689934 0.336519 0.640894
vn 0.940332 0.290619 0.176962
vn 0.915724 0.332718 0.225275
vn -0.480843 -0.875240 -0.052390
vn -0.336116 -0.898006 -0.283923
vn -0.749455 -0.444998 -0.490198
vn -0.909980 -0.377889 -0.170693
vn -0.845817 -0.362970 -0.390956
vn -0.955785 -0.266597 -0.124098
vn 0.173827 -0.116038 -0.977916
vn 0.595224 -0.515376 -0.616519
vn -0.437174 -0.221200 0.871751
vn -0.923047 -0.329313 -0.198842
vn -0.981158 -0.192830 -0.012025
vn 0.018316 -0.037684 -0.999122
vn -0.644264 -0.577979 0.500863
vn -0.779223 -0.471398 0.413033
vn 0.524514 0.142344 -0.839419
vn 0.827572 -0.252221 -0.501508
vn -0.990733 -0.093635 -0.098389
vn -0.998204 0.029661 0.052052
vn 0.970347 0.235041 -0.056408
vn 0.959377 0.123453 -0.253684
vn -0.157243 -0.043045 -0.986621
vn 0.075095 0.063131 -0.995176
vn 0.387515 0.061566 -0.919805
vn 0.488414 0.280619 -0.826259
vn 0.421957 0.476895 -0.771053
vn 0.307124 0.557752 -0.771095
vn 0.432006 0.217533 -0.875243
vn 0.997241 0.054062 -0.050866
vn 0.631615 0.677625 -0.376679
vn 0.410313 0.798950 -0.439685
vn 0.441653 0.880791 0.170734
vn 0.819649 0.440608 -0.366113
vn 0.825603 0.432391 -0.362515
vn 0.812586 0.434396 -0.388592
vn 0.836632 0.356017 0.416293
vn 0.836636 -0.140437 0.529451
vn 0.893005 0.300579 0.334955
vn 0.893543 0.351134 0.279795
vn 0.658657 0.717866 0.225476
vn 0.585243 -0.075579 0.807328
vn 0.591802 0.451870 0.667521
vn 0.394779 0.664036 0.634985
vn 0.483835 0.453386 0.748562
vn 0.746247 0.084392 0.660298
vn 0.686448 -0.051056 0.725384
vn 0.626049 0.163862 0.762373
vn 0.955370 0.214157 0.203480
vn 0.612989 -0.142126 0.777203
vn -0.905683 -0.066636 0.418687
vn 0.970347 0.235041 -0.056408
vn -0.998204 0.029661 0.052052
vn -0.850796 -0.323144 0.414396
vn -0.981158 -0.192830 -0.012025
vn 0.366344 -0.278438 0.887842
vn -0.910476 -0.291367 0.293493
vn -0.955785 -0.266597 -0.124098
vn 0.033061 -0.376876 0.925674
vn -0.932627 -0.348212 0.094633
vn -0.909980 -0.377889 -0.170693
vn 0.640963 -0.343196 0.686573
vn 0.390288 -0.557794 0.732490
vn -0.302926 -0.888427 0.344868
vn -0.480843 -0.875240 -0.052390
vn 0.915724 0.332718 0.225275
vn 0.973774 0.224096 0.039303
vn 0.940332 0.290619 0.176962
vn 0.950094 0.300953 -0.082149
vn 0.383515 0.109107 -0.917067
vn 0.091386 0.314440 -0.944868
vn -0.375771 -0.143217 -0.915579
vn -0.576637 0.009848 -0.816941
vn -0.820264 -0.446912 -0.356983
vn -0.634444 -0.659844 -0.402600
vn -0.671598 0.104706 0.733480
vn -0.954582 0.241299 -0.174780
vn -0.985267 -0.023047 -0.169464
vn -0.809123 0.236906 -0.537769
vn -0.838517 -0.100710 0.535486
vn -0.372592 -0.153531 0.915207
vn -0.712579 -0.631366 -0.305956
vn -0.878146 0.021994 -0.477887
vn -0.477038 0.402010 -0.781551
vn -0.703961 -0.393629 0.591181
vn 0.030991 -0.588363 0.808003
vn -0.565753 0.081833 -0.820504
vn 0.687758 0.266801 -0.675134
vn -0.140282 -0.805310 0.576018
vn 0.659109 -0.742548 0.119156
vn 0.479006 -0.877723 0.012498
vn 0.875092 -0.387473 -0.289964
vn 0.622941 -0.530530 -0.574877
vn 0.296864 -0.087888 -0.950867
vn -0.465922 -0.185559 0.865150
vn -0.779223 -0.471398 0.413033
vn -0.459584 -0.780715 0.423399
vn -0.820264 -0.446912 -0.356983
vn 0.143173 -0.535705 0.832179
vn 0.672931 -0.739695 0.003883
vn -0.664580 -0.695951 -0.272002
vn -0.056788 0.025538 0.998060
vn -0.576637 0.009848 -0.816941
vn 0.297084 -0.236090 0.925204
vn 0.874659 -0.088739 0.476546
vn 0.810603 0.273196 0.517965
vn 0.940332 0.290619 0.176962
vn 0.976669 -0.085931 0.196810
vn 0.950094 0.300953 -0.082149
vn 0.981932 -0.041360 -0.184661
vn 0.091386 0.314440 -0.944868
vn 0.139668 -0.027423 -0.989819
vn -0.450377 -0.307919 -0.838061
f 65537//65537 3//3 196611//196611
f 262148//262148 196609//196609 327683//327683
f 393220//393220 393221//393221 262152//262152
f 524295//524295 589832//589832 393225//393225
f 327684//327684 655371//655371 196615//196615
f 655372//655372 589830//589830 786439//786439
f 786443//786443 720903//720903 655374//655374
f 786446//786446 589835//589835 917517//917517
f 917518//917518 589837//589837 983055//983055
f 1048588//1048588 1048590//1048590 851983//851983
f 1114124//1114124 1179665//1179665 1114129//1114129
f 917520//917520 1048596//1048596 917524//917524
f 1245200//1245200 1179669//1179669 1048598//1048598
f 1245206//1245206 1376273//1376273 1441811//1441811
f 1245205//1245205 1376280//1376280 1245208//1245208
f 1507349//1507349 1376281//1376281 1638423//1638423
f 1507354//1507354 1703958//1703958 1441818//1441818
f 1507353//1507353 1638428//1638428 1507356//1507356
f 1769497//1769497 1703965//1703965 1638430//1638430
f 1769502//1769502 1900570//1900570 1966107//1966107
f 1769501//1769501 1900576//1900576 1769504//1769504
f 2031645//2031645 1900577//1900577 2162719//2162719
f 2031650//2031650 2162718//2162718 2228255//2228255
f 2031649//2031649 2162724//2162724 2031652//2031652
f 2293793//2293793 2162725//2162725 2424867//2424867
f 2293798//2293798 2424866//2424866 2490403//2490403
f 2293797//2293797 2424872//2424872 2293800//2293800
f 2555941//2555941 2424873//2424873 2687015//2687015
f 2555946//2555946 2687014//2687014 2752551//2752551
f 2555945//2555945 2687020//2687020 2555948//2555948
f 2818089//2818089 2687021//2687021 2949163//2949163
f 2818094//2818094 2949162//2949162 3014699//3014699
f 2818093//2818093 2949168//2949168 2818096//2818096
f 3080237//3080237 2949169//2949169 3211311//3211311
f 3080242//3080242 3276846//3276846 3014706//3014706
f 3342387//3342387 3407922//3407922 3342386//3342386
f 3080241//3080241 3211318//3211318 3080246//3080246
f 3473461//3473461 3145778//3145778 3538998//3538998
f 3473464//3473464 3604533//3604533 3473463//3473463
f 3735609//3735609 3670075//3670075 3735612//3735612
f 3866685//3866685 3932217//3932217 3866686//3866686
f 3997759//3997759 4063293//4063293 3997760//3997760
f 4128833//4128833 4259903//4259903 3997756//3997756
f 3997762//3997762 4194368//4194368 4128835//4128835
f 4325444//4325444 4259905//4259905 4456512//4456512
f 4128837//4128837 4522051//4522051 3866682//3866682
f 4587586//4587586 4522044//4522044 4587580//4587580
f 4653122//4653122 4653127//4653127 4587590//4587590
f 4259913//4259913 4259909//4259909 4653129//4653129
f 3735626//3735626 4784198//4784198 3735627//3735627
f 4915274//4915274 4915275//4915275 4980810//4980810
f 4980812//4980812 4784206//4784206 5111878//5111878
f 4980815//4980815 4653130//4653130 4522064//4522064
f 4522063//4522063 5046352//5046352 5242957//5242957
f 5242958//5242958 5111890//5111890 4980819//4980819
f 5242963//5242963 4718669//4718669 4653140//4653140
f 4653136//4653136 5111892//5111892 5505104//5505104
f 5374037//5374037 5308495//5308495 5570641//5570641
f 5570642//5570642 5636183//5636183 5701718//5701718
f 5701719//5701719 5832793//5832793 5242966//5242966
f 5701722//5701722 5374038//5374038 5242971//5242971
f 5242970//5242970 5963867//5963867 5898330//5898330
f 5701721//5701721 5767261//5767261 6094941//6094941
f 6160474//6160474 5963864//5963864 5832799//5832799
f 6029407//6029407 6226008//6226008 5374043//5374043
f 6226005//6226005 6094931//6094931 6291549//6291549
f 6291550//6291550 6422626//6422626 6291554//6291554
f 6291555//6291555 6553700//6553700 6291556//6291556
f 6553693//6553693 6553697//6553697 6488166//6488166
f 6684767//6684767 6029405//6029405 6553703//6553703
f 6619240//6619240 6750309//6750309 6619241//6619241
f 6684778//6684778 5963871//5963871 6160490//6160490
f 6553707//6553707 6881383//6881383 6684779//6684779
f 6750315//6750315 7012453//7012453 6750313//6750313
f 7077996//7077996 7143529//7143529 6881387//6881387
f 7143516//7143516 7209066//7209066 6946920//6946920
f 7012463//7012463 7143528//7143528 6946927//6946927
f 7078000//7078000 7274604//7274604 7078001//7078001
f 7012466//7012466 7405679//7405679 7012464//7012464
f 7340147//7340147 7471216//7471216 7405680//7405680
f 7536755//7536755 7602289//7602289 7143535//7143535
f 7405685//7405685 7471215//7471215 7667826//7667826
f 7405686//7405686 7733365//7733365 7471220//7471220
f 7471223//7471223 7733366//7733366 7536760//7536760
f 7733368//7733368 7798905//7798905 7929977//7929977
f 7995513//7995513 7864442//7864442 7995516//7995516
f 8061051//8061051 7995517//7995517 8192125//8192125
f 8126590//8126590 7733375//7733375 8323190//8323190
f 8257662//8257662 8323201//8323201 8454262//8454262
f 7602294//7602294 8323202//8323202 8519810//8519810
f 8388740//8388740 8585343//8585343 8650879//8650879
f 8454275//8454275 8519814//8519814 8781958//8781958
f 7602306//7602306 8454280//8454280 8716424//8716424
f 8650889//8650889 8913031//8913031 8650884//8650884
f 8388746//8388746 8978564//8978564 8388747//8388747
f 9109642//9109642 9175179//9175179 8716423//8716423
f 8913037//8913037 9240711//9240711 8585354//8585354
f 8585358//8585358 8978569//8978569 9109647//9109647
f 9306254//9306254 9371786//9371786 9306252//9306252
f 9240721//9240721 9437321//9437321 9175177//9175177
f 9502854//9502854 8716429//8716429 9502856//9502856
f 9568398//9568398 9437327//9437327 9240723//9240723
f 9306256//9306256 9633940//9633940 9568399//9568399
f 9699469//9699469 9175185//9175185 9699474//9699474
f 9765009//9765009 9699475//9699475 9437334//9437334
f 9371799//9371799 9830548//9830548 9371800//9371800
f 9568404//9568404 9961625//9961625 9765011//9765011
f 9830554//9830554 10027156//10027156 9961620//9961620
f 9896091//9896091 10092695//10092695 9896092//9896092
f 9896093//9896093 10223772//10223772 10289308//10289308
f 10092703//10092703 10354839//10354839 10027159//10027159
f 10027168//10027168 10354841//10354841 10420378//10420378
f 9765017//9765017 10420385//10420385 10485913//10485913
f 9765025//9765025 9699490//9699490 9765026//9765026
f 10551457//10551457 10682531//10682531 9699490//9699490
f 10551459//10551459 10485924//10485924 10748067//10748067
f 10748065//10748065 10682528//10682528 10813589//10813589
f 10813586//10813586 10616981//10616981 10879140//10879140
f 10748071//10748071 9502883//9502883 10813608//10813608
f 10944648//10944648 8847506//8847506 10944681//10944681
f 11010165//11010165 7602312//7602312 11010158//11010158
f 11010140//11010140 10944622//10944622 5963945//5963945
f 5963944//5963944 11075754//11075754 10944678//10944678
f 5898332//5898332 6226090//6226090 5898410//5898410
f 6226090//6226090 10682534//10682534 6226086//6226086
f 6226084//6226084 5505109//5505109 10682535//10682535
f 5177429//5177429 5177511//5177511 10879060//10879060
f 5439655//5439655 11141285//11141285 5439653//5439653
f 10748064//10748064 11141291//11141291 11206740//11206740
f 11206729//11206729 10420308//10420308 11272363//11272363
f 10420383//10420383 11337901//11337901 11206827//11206827
f 11141293//11141293 10354862//10354862 11403437//11403437
f 11337901//11337901 10354863//10354863 11468975//11468975
f 11534409//11534409 11337900//11337900 11534508//11534508
f 11403440//11403440 11468978//11468978 11665586//11665586
f 11337903//11337903 11403444//11403444 11600052//11600052
f 11600051//11600051 11665589//11665589 11862197//11862197
f 11927625//11927625 4718769//4718769 11927621//11927621
f 11534510//11534510 11337912//11337912 11731128//11731128
f 11731122//11731122 11600057//11600057 11796665//11796665
f 4456631//4456631 4456634//4456634 12124227//12124227
f 11927729//11927729 11927739//11927739 12189882//12189882
f 12189873//12189873 11731128//11731128 12255416//12255416
f 12255412//12255412 12320953//12320953 4325562//4325562
f 12124347//12124347 11993277//11993277 12386491//12386491
f 12386488//12386488 12189884//12189884 12386493//12386493
f 4325565//4325565 4391103//4391103 4325567//4325567
f 12517444//12517444 12320959//12320959 12517567//12517567
f 12582980//12582980 12320960//12320960 12648640//12648640
f 12320958//12320958 12386498//12386498 12714178//12714178
f 12386492//12386492 12255427//12255427 12779715//12779715
f 12255417//12255417 12058820//12058820 12845252//12845252
f 11796677//11796677 12845241//12845241 11796678//11796678
f 11862214//11862214 12910773//12910773 11862215//11862215
f 13041863//13041863 12976310//12976310 13041865//13041865
f 13172937//13172937 13107400//13107400 13172939//13172939
f 13304011//13304011 13238474//13238474 13304013//13304013
f 13500622//13500622 13435088//13435088 13500625//13500625
f 13435089//13435089 13762770//13762770 13631695//13631695
f 13697233//13697233 13893844//13893844 13697236//13697236
f 13631699//13631699 13959382//13959382 13828305//13828305
f 13762775//13762775 14024918//14024918 14090454//14090454
f 14090457//14090457 13959382//13959382 14155988//14155988
f 14221529//14221529 14287064//14287064 14155994//14155994
f 14352597//14352597 14155988//14155988 14352596//14352596
f 14352605//14352605 14287061//14287061 14483673//14483673
f 14352601//14352601 14483678//14483678 14287071//14287071
f 14614749//14614749 14483676//14483676 14614748//14614748
f 14614753//14614753 14483677//14483677 14549218//14549218
f 14614750//14614750 14745826//14745826 14549219//14549219
f 14876897//14876897 14745824//14745824 14876896//14876896
f 14876901//14876901 14745825//14745825 14811366//14811366
f 14876898//14876898 14942438//14942438 14876903//14876903
f 14876902//14876902 15139047//15139047 14942439//14942439
f 15007971//15007971 15007977//15007977 15204583//15204583
f 15204579//15204579 15204586//15204586 15270123//15270123
f 15401192//15401192 15204583//15204583 15401191//15401191
f 15401197//15401197 15204584//15204584 15335662//15335662
f 15401193//15401193 15532270//15532270 15335663//15335663
f 15663341//15663341 15532268//15532268 15663340//15663340
f 15663345//15663345 15532269//15532269 15597810//15597810
f 15663342//15663342 15728882//15728882 15663347//15663347
f 15663346//15663346 15925491//15925491 15728883//15728883
f 15597813//15597813 15794418//15794418 15991027//15991027
f 16056565//16056565 15925487//15925487 15859959//15859959
f 15859957//15859957 16187639//16187639 15925495//15925495
f 16056569//16056569 15991029//15991029 16253175//16253175
f 16318713//16318713 16187638//16187638 16122107//16122107
f 16122105//16122105 16449787//16449787 16187643//16187643
f 16318717//16318717 16253177//16253177 16515323//16515323
f 16580861//16580861 16646394//16646394 16515326//16515326
f 16711932//16711932 16515323//16515323 16711931//16711931
f 16449792//16449792 16711937//16711937 16843009//16843009
f 16515327//16515327 16515331//16515331 16908544//16908544
f 16711939//16711939 16908546//16908546 16646404//16646404
f 16843011//16843011 16908549//16908549 16974085//16974085
f 17170694//17170694 17301768//17301768 17105159//17105159
f 17236230//17236230 17301770//17301770 17432838//17432838
f 17498379//17498379 17563913//17563913 17367302//17367302
f 17105163//17105163 17563917//17563917 17629450//17629450
f 17694990//17694990 17629453//17629453 17694992//17694992
f 17760527//17760527 17432849//17432849 17498386//17498386
f 17563915//17563915 17957139//17957139 17432850//17432850
f 17891596//17891596 17498388//17498388 18088212//18088212
f 18153741//18153741 17563923//17563923 18153743//18153743
f 18219283//18219283 18022674//18022674 18219282//18219282
f 18219286//18219286 18088211//18088211 18284820//18284820
f 18284821//18284821 18022681//18022681 18415895//18415895
f 18022680//18022680 18350362//18350362 18481432//18481432
f 18481433//18481433 18612508//18612508 18481436//18481436
f 18481437//18481437 18284830//18284830 18743578//18743578
f 18284827//18284827 18678047//18678047 18809115//18809115
f 18743579//18743579 18678048//18678048 18874656//18874656
f 18940192//18940192 18809121//18809121 18940195//18940195
f 19005727//19005727 19005728//19005728 18940196//18940196
f 19136791//19136791 18743578//18743578 19136794//19136794
f 19202339//19202339 19267876//19267876 19202340//19202340
f 19333407//19333407 18743587//18743587 19333413//19333413
f 19202344//19202344 18219299//18219299 19136809//19136809
f 19398934//19398934 19333399//19333399 19464485//19464485
f 19464489//19464489 18153765//18153765 19398955//19398955
f 19530025//19530025 19267882//19267882 19595558//19595558
f 19267885//19267885 19333420//19333420 19202350//19202350
f 19464488//19464488 19661102//19661102 19792172//19792172
f 19661104//19661104 19202351//19202351 19595569//19595569
f 19726630//19726630 19923249//19923249 19595567//19595567
f 19726642//19726642 19988778//19988778 19726641//19726641
f 19792176//19792176 20054323//20054323 19857716//19857716
f 20185386//20185386 19464498//19464498 20185387//20185387
f 20185398//20185398 19923243//19923243 19792183//19792183
f 20054327//20054327 19923247//19923247 20382002//20382002
f 20382005//20382005 19923250//19923250 20316472//20316472
f 20447539//20447539 20447540//20447540 20119866//20119866
f 20578617//20578617 20185402//20185402 20382012//20382012
f 20644150//20644150 20316469//20316469 20054333//20054333
f 20447549//20447549 20775219//20775219 20447547//20447547
f 20775229//20775229 20775225//20775225 20578623//20578623
f 20382007//20382007 20316480//20316480 20709696//20709696
f 20775232//20775232 20644157//20644157 20382016//20382016
f 20840769//20840769 20906302//20906302 20775233//20775233
f 21037377//21037377 20644159//20644159 20906307//20906307
f 20971843//20971843 21168448//21168448 20971842//20971842
f 21168451//21168451 21168449//21168449 21037381//21037381
f 21233990//21233990 21299524//21299524 21365060//21365060
f 21168455//21168455 21365059//21365059 21299528//21299528
f 21102921//21102921 20250940//20250940 20644169//20644169
f 21102919//21102919 21496138//21496138 21102922//21102922
f 21627207//21627207 21561672//21561672 21365067//21365067
f 21692747//21692747 21627208//21627208 21692749//21692749
f 21758286//21758286 21561675//21561675 21627214//21627214
f 21889358//21889358 21954893//21954893 21823823//21823823
f 21561681//21561681 22020425//22020425 21561678//21561678
f 21823824//21823824 20250961//20250961 21496145//21496145
f 21954898//21954898 22085969//22085969 22151505//22151505
f 22151478//22151478 22151505//22151505 22085905//22085905
f 22217043//22217043 22216977//22216977 20250963//20250963
f 17826063//17826063 22217044//22217044 22282550//22282550
f 22216975//22216975 20250965//20250965 22282539//22282539
f 22282511//22282511 18153750//18153750 19530069//19530069
f 22413654//22413654 22348120//22348120 22413657//22413657
f 22479190//22479190 22610266//22610266 22675800//22675800
f 22675802//22675802 22806876//22806876 22741338//22741338
f 22872413//22872413 22872410//22872410 22610262//22610262
f 22937949//22937949 22806878//22806878 22937952//22937952
f 23069024//23069024 23003487//23003487 23069026//23069026
f 22937950//22937950 23069027//23069027 22937955//22937955
f 23265630//23265630 22872406//22872406 23265635//23265635
f 23331158//23331158 23265625//23265625 22348133//22348133
f 23396706//23396706 23134561//23134561 23396711//23396711
f 23527777//23527777 23396707//23396707 23069032//23069032
f 23331161//23331161 22544745//22544745 23658857//23658857
f 23200100//23200100 23527787//23527787 23200107//23200107
f 23789924//23789924 23789925//23789925 23331177//23331177
f 23724388//23724388 23462252//23462252 23396717//23396717
f 23920999//23920999 23855469//23855469 23986542//23986542
f 23986541//23986541 23855472//23855472 23396721//23396721
f 24117606//24117606 24052072//24052072 23855474//23855474
f 24183149//24183149 24052081//24052081 24183155//24183155
f 24117608//24117608 24183156//24183156 24117620//24117620
f 24379763//24379763 24183154//24183154 24314229//24314229
f 24445299//24445299 23527797//23527797 24510836//24510836
f 24510824//24510824 23724395//23724395 23789944//23789944
f 24576364//24576364 24445289//24445289 24379769//24379769
f 24707446//24707446 24641913//24641913 24772986//24772986
f 24838517//24838517 24510836//24510836 24838516//24838516
f 24641909//24641909 24510844//24510844 23724413//23724413
f 24904043//24904043 24510840//24510840 24904062//24904062
f 24838519//24838519 24576382//24576382 25035133//25035133
f 25035134//25035134 23593341//23593341 25100664//25100664
f 25035128//25035128 25166208//25166208 24838526//24838526
f 25166206//25166206 24641919//24641919 24838530//24838530
f 24838529//24838529 24641922//24641922 25297275//25297275
f 25297273//25297273 25166210//25166210 25035140//25035140
f 25035136//25035136 24772996//24772996 25297285//25297285
f 25493883//25493883 25428357//25428357 25559430//25559430
f 25624963//25624963 25297282//25297282 25624965//25624965
f 25166217//25166217 25690498//25690498 25624962//25624962
f 25690497//25690497 25428356//25428356 25756039//25756039
f 25559434//25559434 25428363//25428363 25624972//25624972
f 25756037//25756037 25690508//25690508 25887112//25887112
f 25821578//25821578 25887117//25887117 25952650//25952650
f 25821581//25821581 25952654//25952654 26083726//26083726
f 25952656//25952656 25887119//25887119 26149261//26149261
f 26083728//26083728 25690513//25690513 26280332//26280332
f 25887122//25887122 26345872//26345872 26214800//26214800
f 26149266//26149266 26345875//26345875 26411409//26411409
f 26280329//26280329 26476949//26476949 26345874//26345874
f 26476937//26476937 26542468//26542468 26411411//26411411
f 26345877//26345877 26542486//26542486 26608020//26608020
f 25362840//25362840 25100693//25100693 26673540//26673540
f 26476953//26476953 26673558//26673558 26739093//26739093
f 26542490//26542490 26739095//26739095 26804630//26804630
f 26608026//26608026 26804635//26804635 26935707//26935707
f 26935706//26935706 26739101//26739101 27001242//27001242
f 26935709//26935709 27001246//27001246 27132318//27132318
f 27001241//27001241 27197856//27197856 27132317//27132317
f 26739096//26739096 27197856//27197856 27263391//27263391
f 27197848//27197848 27328930//27328930 27263392//27263392
f 26673536//26673536 27328930//27328930 27394465//27394465
f 27394466//27394466 25100708//25100708 27525538//27525538
f 27460002//27460002 23593381//23593381 27525504//27525504
f 27460005//27460005 27525482//27525482 23593322//23593322
f 27656614//27656614 27787688//27787688 27656616//27656616
f 27722150//27722150 27853226//27853226 27591083//27591083
f 27853228//27853228 27984296//27984296 28049832//28049832
f 28049833//28049833 28115368//28115368 27787693//27787693
f 28180906//28180906 27853227//27853227 28180908//28180908
f 28246447//28246447 28115371//28115371 28049841//28049841
f 28049836//28049836 28377521//28377521 28115377//28115377
f 28443055//28443055 28180912//28180912 28443052//28443052
f 28246452//28246452 28508595//28508595 28574131//28574131
f 27984307//27984307 28574133//28574133 28508598//28508598
f 28705205//28705205 28705206//28705206 28639666//28639666
f 27984309//27984309 28377527//28377527 28311992//28311992
f 28311980//28311980 28705208//28705208 28377528//28377528
f 27984311//27984311 28836280//28836280 28967354//28967354
f 28967356//28967356 28836282//28836282 29098427//29098427
f 29098430//29098430 28967355//28967355 29163967//29163967
f 29229500//29229500 29295035//29295035 29098425//29098425
f 29229505//29229505 29295036//29295036 29426109//29426109
f 29426110//29426110 29295037//29295037 29491650//29491650
f 29491646//29491646 29295042//29295042 29557187//29557187
f 29557189//29557189 29622723//29622723 29688259//29688259
f 29688254//29688254 29753795//29753795 29688261//29688261
f 29688263//29688263 29163976//29163976 29688264//29688264
f 29753801//29753801 29884872//29884872 29950408//29950408
f 29884865//29884865 29163978//29163978 29819338//29819338
f 30015937//30015937 29163967//29163967 30015935//30015935
f 29950401//29950401 29163979//29163979 29950411//29950411
